<svg width="78" height="72" viewBox="0 0 78 72" fill="none" xmlns="http://www.w3.org/2000/svg">
<path fill-rule="evenodd" clip-rule="evenodd" d="M61.903 0.80909C61.4477 0.0354577 60.4391 -0.22979 59.6509 0.217064L32.663 15.5093C32.0488 15.8576 31.7299 16.553 31.8723 17.2352L40.955 60.7976C40.9988 61.0074 40.9081 61.3172 40.7706 61.4693L39.6671 62.6907C37.373 65.2303 35.4295 66.6061 31.7353 66.6061C27.5932 66.6061 25.6485 64.4632 22.5692 60.6757C18.8915 56.1528 14.3154 50.5241 3.18923 50.5241H2.91411C1.39666 50.5241 0.166504 51.7314 0.166504 53.2207C0.166504 54.7101 1.39666 55.9174 2.91411 55.9174H3.18923C11.6694 55.9174 14.8772 59.8626 18.2737 64.0396C21.3074 67.771 24.7458 72 31.7353 72C37.7692 72 41.0896 69.2454 43.7788 66.2691L53.6979 55.2913C53.6979 55.2907 77.2899 29.179 77.2899 29.179C77.7605 28.6581 77.839 27.9 77.4841 27.2966L61.903 0.80909Z" fill="#E6EDF7"/>
</svg>
