<svg width="24" height="24" viewBox="0 0 24 24" fill="none" xmlns="http://www.w3.org/2000/svg">
<path fill-rule="evenodd" clip-rule="evenodd" d="M12 24C18.6274 24 24 18.6274 24 12C24 5.37256 18.6274 0 12 0C5.37256 0 0 5.37256 0 12C0 18.6274 5.37256 24 12 24ZM14.7661 5.03955L17.8472 10.3076C17.8643 10.3369 17.8604 10.374 17.8374 10.3994L13.3584 15.3862L11.5205 17.4321C11.0225 17.9868 10.4072 18.5 9.28906 18.5C7.99414 18.5 7.35693 17.7119 6.79492 17.0166C6.17627 16.251 5.5918 15.5278 4.07959 15.5034C4.03564 15.5029 4 15.4683 4 15.4248V14.5776C4 14.5337 4.03711 14.4976 4.08154 14.498C6.08398 14.5254 6.91846 15.5576 7.59082 16.3896C8.16162 17.0957 8.52148 17.4946 9.28906 17.4946C9.97363 17.4946 10.3335 17.2383 10.7588 16.7651L11.0122 16.4829L9.28174 8.13623C9.2749 8.10303 9.29053 8.06934 9.32031 8.05225L14.6567 5.01074C14.6841 4.99512 14.7168 4.99707 14.7412 5.01318C14.751 5.02002 14.7598 5.02881 14.7661 5.03955Z" fill="white"/>
</svg>
